<svg xmlns="http://www.w3.org/2000/svg" xmlns:xlink="http://www.w3.org/1999/xlink" width="2000" zoomAndPan="magnify" viewBox="0 0 1500 1499.999933" height="2000" preserveAspectRatio="xMidYMid meet" version="1.0"><defs><clipPath id="f4f9e014c8"><path d="M 0 643 L 388 643 L 388 1062.910156 L 0 1062.910156 Z M 0 643 " clip-rule="nonzero"/></clipPath><clipPath id="f7773e4fa9"><path d="M 0 223 L 388 223 L 388 643.421875 L 0 643.421875 Z M 0 223 " clip-rule="nonzero"/></clipPath><clipPath id="73fc5274d2"><path d="M 358.824219 12 L 747 12 L 747 432.234375 L 358.824219 432.234375 Z M 358.824219 12 " clip-rule="nonzero"/></clipPath><clipPath id="c770dbf1ab"><path d="M 721.773438 225 L 1111 225 L 1111 644.863281 L 721.773438 644.863281 Z M 721.773438 225 " clip-rule="nonzero"/></clipPath><clipPath id="93e110fc88"><path d="M 721.773438 644 L 1111 644 L 1111 1064.351562 L 721.773438 1064.351562 Z M 721.773438 644 " clip-rule="nonzero"/></clipPath><clipPath id="2ce14d3908"><path d="M 358.824219 854 L 747 854 L 747 1274.097656 L 358.824219 1274.097656 Z M 358.824219 854 " clip-rule="nonzero"/></clipPath><clipPath id="c442a3ba9c"><path d="M 721.773438 1063 L 1111 1063 L 1111 1482.808594 L 721.773438 1482.808594 Z M 721.773438 1063 " clip-rule="nonzero"/></clipPath><clipPath id="5c53f3481c"><path d="M 1110.886719 225 L 1500 225 L 1500 644.863281 L 1110.886719 644.863281 Z M 1110.886719 225 " clip-rule="nonzero"/></clipPath><clipPath id="9f075acd13"><path d="M 1110.886719 644 L 1500 644 L 1500 1064.351562 L 1110.886719 1064.351562 Z M 1110.886719 644 " clip-rule="nonzero"/></clipPath><clipPath id="2f3687829e"><path d="M 721.773438 225 L 915.933594 225 L 915.933594 644.863281 L 721.773438 644.863281 Z M 721.773438 225 " clip-rule="nonzero"/></clipPath><clipPath id="0eacafea0f"><path d="M 721.773438 644 L 915.933594 644 L 915.933594 1064.351562 L 721.773438 1064.351562 Z M 721.773438 644 " clip-rule="nonzero"/></clipPath><clipPath id="d1542eaa65"><rect x="0" width="1500" y="0" height="1484"/></clipPath></defs><g transform="matrix(1, 0, 0, 1, 0, 4)"><g clip-path="url(#d1542eaa65)"><g clip-path="url(#f4f9e014c8)"><path fill="#3467c6" d="M 356.808594 726.296875 L 223.433594 651.269531 C 204.9375 640.84375 181.972656 640.84375 163.480469 651.269531 L 30.125 726.273438 C 10.894531 737.054688 -1.042969 757.484375 -1.042969 779.558594 L -1.042969 927.605469 C -1.042969 949.65625 10.894531 970.066406 30.101562 980.867188 L 163.480469 1055.894531 C 172.726562 1061.09375 183.109375 1063.71875 193.46875 1063.71875 C 203.824219 1063.71875 214.207031 1061.117188 223.453125 1055.894531 L 356.832031 980.867188 C 376.039062 970.066406 387.976562 949.65625 387.976562 927.605469 L 387.976562 779.558594 C 387.976562 757.484375 376.039062 737.054688 356.832031 726.296875 Z M 179.839844 680.324219 C 184.019531 677.96875 188.730469 676.789062 193.445312 676.789062 C 198.15625 676.789062 202.871094 677.96875 207.050781 680.324219 L 336.046875 752.902344 L 193.421875 834.398438 L 50.796875 752.902344 L 179.816406 680.324219 Z M 46.460938 951.859375 C 37.703125 946.925781 32.28125 937.652344 32.28125 927.628906 L 32.28125 780.714844 L 176.773438 863.273438 L 176.773438 1025.148438 L 46.460938 951.835938 Z M 340.449219 951.859375 L 210.140625 1025.171875 L 210.140625 863.296875 L 354.632812 780.734375 L 354.632812 927.652344 C 354.632812 937.675781 349.207031 946.945312 340.449219 951.882812 Z M 340.449219 951.859375 " fill-opacity="1" fill-rule="nonzero"/></g><g clip-path="url(#f7773e4fa9)"><path fill="#3467c6" d="M 356.808594 306.808594 L 223.433594 231.78125 C 204.9375 221.355469 181.972656 221.355469 163.480469 231.78125 L 30.125 306.785156 C 10.894531 317.566406 -1.042969 337.996094 -1.042969 360.070312 L -1.042969 508.117188 C -1.042969 530.167969 10.894531 550.578125 30.101562 561.378906 L 163.480469 636.40625 C 172.726562 641.605469 183.109375 644.230469 193.46875 644.230469 C 203.824219 644.230469 214.207031 641.628906 223.453125 636.40625 L 356.832031 561.378906 C 376.039062 550.578125 387.976562 530.167969 387.976562 508.117188 L 387.976562 360.070312 C 387.976562 337.996094 376.039062 317.566406 356.832031 306.808594 Z M 179.839844 260.835938 C 184.019531 258.480469 188.730469 257.300781 193.445312 257.300781 C 198.15625 257.300781 202.871094 258.480469 207.050781 260.835938 L 336.046875 333.414062 L 193.421875 414.910156 L 50.796875 333.414062 L 179.816406 260.835938 Z M 46.460938 532.371094 C 37.703125 527.433594 32.28125 518.164062 32.28125 508.140625 L 32.28125 361.226562 L 176.773438 443.785156 L 176.773438 605.660156 L 46.460938 532.347656 Z M 340.449219 532.371094 L 210.140625 605.683594 L 210.140625 443.808594 L 354.632812 361.246094 L 354.632812 508.164062 C 354.632812 518.1875 349.207031 527.457031 340.449219 532.394531 Z M 340.449219 532.371094 " fill-opacity="1" fill-rule="nonzero"/></g><g clip-path="url(#73fc5274d2)"><path fill="#3467c6" d="M 715.636719 95.621094 L 582.257812 20.59375 C 563.761719 10.167969 540.800781 10.167969 522.304688 20.59375 L 388.949219 95.597656 C 369.722656 106.378906 357.785156 126.808594 357.785156 148.882812 L 357.785156 296.929688 C 357.785156 318.984375 369.722656 339.390625 388.925781 350.191406 L 522.304688 425.21875 C 531.550781 430.417969 541.933594 433.042969 552.292969 433.042969 C 562.652344 433.042969 573.03125 430.441406 582.28125 425.21875 L 715.65625 350.191406 C 734.863281 339.390625 746.800781 318.984375 746.800781 296.929688 L 746.800781 148.882812 C 746.800781 126.808594 734.863281 106.378906 715.65625 95.621094 Z M 538.664062 49.648438 C 542.84375 47.292969 547.558594 46.113281 552.269531 46.113281 C 556.984375 46.113281 561.695312 47.292969 565.875 49.648438 L 694.871094 122.230469 L 552.246094 203.722656 L 409.621094 122.230469 L 538.644531 49.648438 Z M 405.289062 321.183594 C 396.53125 316.25 391.105469 306.980469 391.105469 296.953125 L 391.105469 150.039062 L 535.597656 232.597656 L 535.597656 394.472656 L 405.289062 321.160156 Z M 699.273438 321.183594 L 568.964844 394.496094 L 568.964844 232.621094 L 713.457031 150.058594 L 713.457031 296.976562 C 713.457031 307 708.03125 316.269531 699.273438 321.207031 Z M 699.273438 321.183594 " fill-opacity="1" fill-rule="nonzero"/></g><g clip-path="url(#c770dbf1ab)"><path fill="#000000" d="M 1078.871094 308.320312 L 945.386719 233.234375 C 926.875 222.800781 903.894531 222.800781 885.386719 233.234375 L 751.921875 308.296875 C 732.679688 319.089844 720.734375 339.535156 720.734375 361.625 L 720.734375 509.796875 C 720.734375 531.867188 732.679688 552.289062 751.902344 563.101562 L 885.386719 638.1875 C 894.640625 643.394531 905.03125 646.019531 915.398438 646.019531 C 925.765625 646.019531 936.152344 643.417969 945.410156 638.1875 L 1078.894531 563.101562 C 1098.113281 552.289062 1110.0625 531.867188 1110.0625 509.796875 L 1110.0625 361.625 C 1110.0625 339.535156 1098.113281 319.089844 1078.894531 308.320312 Z M 901.757812 262.3125 C 905.941406 259.953125 910.660156 258.773438 915.375 258.773438 C 920.089844 258.773438 924.808594 259.953125 928.992188 262.3125 L 1058.09375 334.953125 L 915.351562 416.511719 L 772.613281 334.953125 L 901.738281 262.3125 Z M 768.273438 534.070312 C 759.507812 529.128906 754.082031 519.851562 754.082031 509.820312 L 754.082031 362.785156 L 898.6875 445.410156 L 898.6875 607.421875 L 768.273438 534.046875 Z M 1062.496094 534.070312 L 932.082031 607.441406 L 932.082031 445.433594 L 1076.691406 362.804688 L 1076.691406 509.839844 C 1076.691406 519.875 1071.261719 529.152344 1062.496094 534.089844 Z M 1062.496094 534.070312 " fill-opacity="1" fill-rule="nonzero"/></g><g clip-path="url(#93e110fc88)"><path fill="#000000" d="M 1078.871094 727.808594 L 945.386719 652.722656 C 926.875 642.289062 903.894531 642.289062 885.386719 652.722656 L 751.921875 727.785156 C 732.679688 738.578125 720.734375 759.023438 720.734375 781.113281 L 720.734375 929.285156 C 720.734375 951.355469 732.679688 971.777344 751.902344 982.589844 L 885.386719 1057.675781 C 894.640625 1062.882812 905.03125 1065.507812 915.398438 1065.507812 C 925.765625 1065.507812 936.152344 1062.90625 945.410156 1057.675781 L 1078.894531 982.589844 C 1098.113281 971.777344 1110.0625 951.355469 1110.0625 929.285156 L 1110.0625 781.113281 C 1110.0625 759.023438 1098.113281 738.578125 1078.894531 727.808594 Z M 901.757812 681.800781 C 905.941406 679.441406 910.660156 678.261719 915.375 678.261719 C 920.089844 678.261719 924.808594 679.441406 928.992188 681.800781 L 1058.09375 754.441406 L 915.351562 836 L 772.613281 754.441406 L 901.738281 681.800781 Z M 768.273438 953.558594 C 759.507812 948.617188 754.082031 939.339844 754.082031 929.308594 L 754.082031 782.273438 L 898.6875 864.898438 L 898.6875 1026.910156 L 768.273438 953.535156 Z M 1062.496094 953.558594 L 932.082031 1026.929688 L 932.082031 864.921875 L 1076.691406 782.292969 L 1076.691406 929.328125 C 1076.691406 939.363281 1071.261719 948.640625 1062.496094 953.578125 Z M 1062.496094 953.558594 " fill-opacity="1" fill-rule="nonzero"/></g><g clip-path="url(#2ce14d3908)"><path fill="#3467c6" d="M 715.636719 937.484375 L 582.257812 862.457031 C 563.761719 852.03125 540.800781 852.03125 522.304688 862.457031 L 388.949219 937.460938 C 369.722656 948.242188 357.785156 968.671875 357.785156 990.746094 L 357.785156 1138.792969 C 357.785156 1160.84375 369.722656 1181.253906 388.925781 1192.054688 L 522.304688 1267.082031 C 531.550781 1272.28125 541.933594 1274.90625 552.292969 1274.90625 C 562.652344 1274.90625 573.03125 1272.304688 582.28125 1267.082031 L 715.65625 1192.054688 C 734.863281 1181.25 746.800781 1160.84375 746.800781 1138.792969 L 746.800781 990.746094 C 746.800781 968.671875 734.863281 948.242188 715.65625 937.484375 Z M 538.664062 891.511719 C 542.84375 889.15625 547.558594 887.976562 552.269531 887.976562 C 556.984375 887.976562 561.695312 889.15625 565.875 891.511719 L 694.871094 964.089844 L 552.246094 1045.585938 L 409.621094 964.089844 L 538.644531 891.511719 Z M 405.289062 1163.046875 C 396.53125 1158.109375 391.105469 1148.839844 391.105469 1138.816406 L 391.105469 991.902344 L 535.597656 1074.460938 L 535.597656 1236.335938 L 405.289062 1163.023438 Z M 699.273438 1163.046875 L 568.964844 1236.359375 L 568.964844 1074.484375 L 713.457031 991.921875 L 713.457031 1138.839844 C 713.457031 1148.863281 708.03125 1158.132812 699.273438 1163.066406 Z M 699.273438 1163.046875 " fill-opacity="1" fill-rule="nonzero"/></g><g clip-path="url(#c442a3ba9c)"><path fill="#000000" d="M 1078.871094 1146.265625 L 945.386719 1071.179688 C 926.875 1060.746094 903.894531 1060.746094 885.386719 1071.179688 L 751.921875 1146.246094 C 732.679688 1157.035156 720.734375 1177.480469 720.734375 1199.574219 L 720.734375 1347.742188 C 720.734375 1369.8125 732.679688 1390.234375 751.902344 1401.046875 L 885.386719 1476.136719 C 894.640625 1481.339844 905.03125 1483.964844 915.398438 1483.964844 C 925.765625 1483.964844 936.152344 1481.363281 945.410156 1476.136719 L 1078.894531 1401.046875 C 1098.113281 1390.234375 1110.0625 1369.8125 1110.0625 1347.742188 L 1110.0625 1199.574219 C 1110.0625 1177.480469 1098.113281 1157.035156 1078.894531 1146.265625 Z M 901.757812 1100.257812 C 905.941406 1097.898438 910.660156 1096.722656 915.375 1096.722656 C 920.089844 1096.722656 924.808594 1097.898438 928.992188 1100.257812 L 1058.09375 1172.898438 L 915.351562 1254.457031 L 772.613281 1172.898438 L 901.738281 1100.257812 Z M 768.273438 1372.015625 C 759.507812 1367.078125 754.082031 1357.800781 754.082031 1347.765625 L 754.082031 1200.730469 L 898.6875 1283.359375 L 898.6875 1445.367188 L 768.273438 1371.992188 Z M 1062.496094 1372.015625 L 932.082031 1445.386719 L 932.082031 1283.378906 L 1076.691406 1200.75 L 1076.691406 1347.789062 C 1076.691406 1357.820312 1071.261719 1367.097656 1062.496094 1372.039062 Z M 1062.496094 1372.015625 " fill-opacity="1" fill-rule="nonzero"/></g><g clip-path="url(#5c53f3481c)"><path fill="#000000" d="M 1467.984375 308.320312 L 1334.5 233.234375 C 1315.988281 222.800781 1293.007812 222.800781 1274.496094 233.234375 L 1141.035156 308.296875 C 1121.792969 319.089844 1109.84375 339.535156 1109.84375 361.625 L 1109.84375 509.796875 C 1109.84375 531.867188 1121.792969 552.289062 1141.011719 563.101562 L 1274.496094 638.1875 C 1283.753906 643.394531 1294.140625 646.019531 1304.507812 646.019531 C 1314.875 646.019531 1325.265625 643.417969 1334.519531 638.1875 L 1468.003906 563.101562 C 1487.226562 552.289062 1499.175781 531.867188 1499.175781 509.796875 L 1499.175781 361.625 C 1499.175781 339.535156 1487.226562 319.089844 1468.003906 308.320312 Z M 1290.871094 262.3125 C 1295.054688 259.953125 1299.769531 258.773438 1304.488281 258.773438 C 1309.203125 258.773438 1313.921875 259.953125 1318.101562 262.3125 L 1447.203125 334.953125 L 1304.464844 416.511719 L 1161.726562 334.953125 L 1290.851562 262.3125 Z M 1157.386719 534.070312 C 1148.621094 529.128906 1143.195312 519.851562 1143.195312 509.820312 L 1143.195312 362.785156 L 1287.800781 445.410156 L 1287.800781 607.421875 L 1157.386719 534.046875 Z M 1451.609375 534.070312 L 1321.195312 607.441406 L 1321.195312 445.433594 L 1465.804688 362.804688 L 1465.804688 509.839844 C 1465.804688 519.875 1460.375 529.152344 1451.609375 534.089844 Z M 1451.609375 534.070312 " fill-opacity="1" fill-rule="nonzero"/></g><g clip-path="url(#9f075acd13)"><path fill="#000000" d="M 1467.984375 727.808594 L 1334.5 652.722656 C 1315.988281 642.289062 1293.007812 642.289062 1274.496094 652.722656 L 1141.035156 727.785156 C 1121.792969 738.578125 1109.84375 759.023438 1109.84375 781.113281 L 1109.84375 929.285156 C 1109.84375 951.355469 1121.792969 971.777344 1141.011719 982.589844 L 1274.496094 1057.675781 C 1283.753906 1062.882812 1294.140625 1065.507812 1304.507812 1065.507812 C 1314.875 1065.507812 1325.265625 1062.90625 1334.519531 1057.675781 L 1468.003906 982.589844 C 1487.226562 971.777344 1499.175781 951.355469 1499.175781 929.285156 L 1499.175781 781.113281 C 1499.175781 759.023438 1487.226562 738.578125 1468.003906 727.808594 Z M 1290.871094 681.800781 C 1295.054688 679.441406 1299.769531 678.261719 1304.488281 678.261719 C 1309.203125 678.261719 1313.921875 679.441406 1318.101562 681.800781 L 1447.203125 754.441406 L 1304.464844 836 L 1161.726562 754.441406 L 1290.851562 681.800781 Z M 1157.386719 953.558594 C 1148.621094 948.617188 1143.195312 939.339844 1143.195312 929.308594 L 1143.195312 782.273438 L 1287.800781 864.898438 L 1287.800781 1026.910156 L 1157.386719 953.535156 Z M 1451.609375 953.558594 L 1321.195312 1026.929688 L 1321.195312 864.921875 L 1465.804688 782.292969 L 1465.804688 929.328125 C 1465.804688 939.363281 1460.375 948.640625 1451.609375 953.578125 Z M 1451.609375 953.558594 " fill-opacity="1" fill-rule="nonzero"/></g><g clip-path="url(#2f3687829e)"><path fill="#3467c6" d="M 1078.585938 308.25 L 945.207031 233.226562 C 926.710938 222.800781 903.75 222.800781 885.253906 233.226562 L 751.898438 308.226562 C 732.671875 319.007812 720.734375 339.4375 720.734375 361.511719 L 720.734375 509.5625 C 720.734375 531.613281 732.671875 552.019531 751.875 562.824219 L 885.253906 637.847656 C 894.5 643.050781 904.882812 645.671875 915.242188 645.671875 C 925.601562 645.671875 935.980469 643.070312 945.230469 637.847656 L 1078.605469 562.824219 C 1097.8125 552.019531 1109.75 531.613281 1109.75 509.5625 L 1109.75 361.511719 C 1109.75 339.4375 1097.8125 319.007812 1078.605469 308.25 Z M 901.617188 262.28125 C 905.792969 259.921875 910.507812 258.746094 915.21875 258.746094 C 919.933594 258.746094 924.644531 259.921875 928.824219 262.28125 L 1057.824219 334.859375 L 915.199219 416.351562 L 772.574219 334.859375 L 901.59375 262.28125 Z M 768.238281 533.8125 C 759.480469 528.878906 754.054688 519.609375 754.054688 509.582031 L 754.054688 362.667969 L 898.546875 445.230469 L 898.546875 607.105469 L 768.238281 533.792969 Z M 1062.222656 533.8125 L 931.914062 607.125 L 931.914062 445.25 L 1076.40625 362.691406 L 1076.40625 509.605469 C 1076.40625 519.632812 1070.984375 528.902344 1062.222656 533.835938 Z M 1062.222656 533.8125 " fill-opacity="1" fill-rule="nonzero"/></g><g clip-path="url(#0eacafea0f)"><path fill="#3467c6" d="M 1078.585938 727.738281 L 945.207031 652.714844 C 926.710938 642.289062 903.75 642.289062 885.253906 652.714844 L 751.898438 727.714844 C 732.671875 738.496094 720.734375 758.925781 720.734375 781 L 720.734375 929.050781 C 720.734375 951.101562 732.671875 971.507812 751.875 982.3125 L 885.253906 1057.335938 C 894.5 1062.539062 904.882812 1065.160156 915.242188 1065.160156 C 925.601562 1065.160156 935.980469 1062.558594 945.230469 1057.335938 L 1078.605469 982.3125 C 1097.8125 971.507812 1109.75 951.101562 1109.75 929.050781 L 1109.75 781 C 1109.75 758.925781 1097.8125 738.496094 1078.605469 727.738281 Z M 901.617188 681.769531 C 905.792969 679.410156 910.507812 678.234375 915.21875 678.234375 C 919.933594 678.234375 924.644531 679.410156 928.824219 681.769531 L 1057.824219 754.347656 L 915.199219 835.839844 L 772.574219 754.347656 L 901.59375 681.769531 Z M 768.238281 953.300781 C 759.480469 948.367188 754.054688 939.097656 754.054688 929.070312 L 754.054688 782.15625 L 898.546875 864.71875 L 898.546875 1026.59375 L 768.238281 953.28125 Z M 1062.222656 953.300781 L 931.914062 1026.613281 L 931.914062 864.738281 L 1076.40625 782.179688 L 1076.40625 929.09375 C 1076.40625 939.121094 1070.984375 948.390625 1062.222656 953.324219 Z M 1062.222656 953.300781 " fill-opacity="1" fill-rule="nonzero"/></g></g></g></svg>