<svg xmlns="http://www.w3.org/2000/svg" xmlns:xlink="http://www.w3.org/1999/xlink" width="2000" zoomAndPan="magnify" viewBox="0 0 1500 1499.999933" height="2000" preserveAspectRatio="xMidYMid meet" version="1.0"><defs><clipPath id="c1c5a21063"><path d="M 0 507 L 311 507 L 311 843.527344 L 0 843.527344 Z M 0 507 " clip-rule="nonzero"/></clipPath><clipPath id="0ad6463e3d"><path d="M 0 172 L 311 172 L 311 507.9375 L 0 507.9375 Z M 0 172 " clip-rule="nonzero"/></clipPath><clipPath id="299728614b"><path d="M 287.058594 3 L 598 3 L 598 338.988281 L 287.058594 338.988281 Z M 287.058594 3 " clip-rule="nonzero"/></clipPath><clipPath id="617a176b61"><path d="M 577.421875 172 L 888 172 L 888 507.9375 L 577.421875 507.9375 Z M 577.421875 172 " clip-rule="nonzero"/></clipPath><clipPath id="78525a7f99"><path d="M 577.421875 507 L 888 507 L 888 843.527344 L 577.421875 843.527344 Z M 577.421875 507 " clip-rule="nonzero"/></clipPath><clipPath id="499ff49643"><path d="M 287.058594 676 L 598 676 L 598 1012.476562 L 287.058594 1012.476562 Z M 287.058594 676 " clip-rule="nonzero"/></clipPath><clipPath id="a95157a5f7"><path d="M 577.421875 843 L 888 843 L 888 1179.449219 L 577.421875 1179.449219 Z M 577.421875 843 " clip-rule="nonzero"/></clipPath><clipPath id="fdb35c7294"><path d="M 888.710938 172 L 1200 172 L 1200 507.9375 L 888.710938 507.9375 Z M 888.710938 172 " clip-rule="nonzero"/></clipPath><clipPath id="aaf392b214"><path d="M 888.710938 507 L 1200 507 L 1200 843.527344 L 888.710938 843.527344 Z M 888.710938 507 " clip-rule="nonzero"/></clipPath><clipPath id="981ddd58da"><path d="M 577.421875 172 L 732.746094 172 L 732.746094 507.9375 L 577.421875 507.9375 Z M 577.421875 172 " clip-rule="nonzero"/></clipPath><clipPath id="1f317cc10e"><path d="M 577.421875 507 L 732.746094 507 L 732.746094 843.527344 L 577.421875 843.527344 Z M 577.421875 507 " clip-rule="nonzero"/></clipPath><clipPath id="0618c29bf2"><rect x="0" width="1204" y="0" height="1190"/></clipPath></defs><g transform="matrix(1, 0, 0, 1, 150, 160)"><g clip-path="url(#0618c29bf2)"><g clip-path="url(#c1c5a21063)"><path fill="#000000" d="M 285.675781 574.292969 L 178.890625 514.222656 C 164.082031 505.875 145.695312 505.875 130.886719 514.222656 L 24.117188 574.273438 C 8.722656 582.90625 -0.835938 599.261719 -0.835938 616.9375 L -0.835938 735.472656 C -0.835938 753.128906 8.722656 769.46875 24.101562 778.117188 L 130.886719 838.1875 C 138.292969 842.351562 146.605469 844.453125 154.898438 844.453125 C 163.191406 844.453125 171.503906 842.371094 178.90625 838.1875 L 285.695312 778.117188 C 301.070312 769.46875 310.628906 753.128906 310.628906 735.472656 L 310.628906 616.9375 C 310.628906 599.261719 301.070312 582.90625 285.695312 574.292969 Z M 143.988281 537.484375 C 147.332031 535.597656 151.105469 534.65625 154.878906 534.65625 C 158.652344 534.65625 162.425781 535.597656 165.773438 537.484375 L 269.054688 595.597656 L 154.863281 660.84375 L 40.671875 595.597656 L 143.96875 537.484375 Z M 37.199219 754.890625 C 30.1875 750.941406 25.84375 743.519531 25.84375 735.492188 L 25.84375 617.863281 L 141.53125 683.964844 L 141.53125 813.574219 L 37.199219 754.875 Z M 272.578125 754.890625 L 168.246094 813.589844 L 168.246094 683.984375 L 283.933594 617.878906 L 283.933594 735.507812 C 283.933594 743.535156 279.589844 750.957031 272.578125 754.910156 Z M 272.578125 754.890625 " fill-opacity="1" fill-rule="nonzero"/></g><g clip-path="url(#0ad6463e3d)"><path fill="#000000" d="M 285.675781 238.703125 L 178.890625 178.632812 C 164.082031 170.285156 145.695312 170.285156 130.886719 178.632812 L 24.117188 238.683594 C 8.722656 247.316406 -0.835938 263.671875 -0.835938 281.347656 L -0.835938 399.882812 C -0.835938 417.539062 8.722656 433.878906 24.101562 442.527344 L 130.886719 502.597656 C 138.292969 506.761719 146.605469 508.863281 154.898438 508.863281 C 163.191406 508.863281 171.503906 506.78125 178.90625 502.597656 L 285.695312 442.527344 C 301.070312 433.878906 310.628906 417.539062 310.628906 399.882812 L 310.628906 281.347656 C 310.628906 263.671875 301.070312 247.316406 285.695312 238.703125 Z M 143.988281 201.894531 C 147.332031 200.007812 151.105469 199.066406 154.878906 199.066406 C 158.652344 199.066406 162.425781 200.007812 165.773438 201.894531 L 269.054688 260.007812 L 154.863281 325.253906 L 40.671875 260.007812 L 143.96875 201.894531 Z M 37.199219 419.300781 C 30.1875 415.351562 25.84375 407.929688 25.84375 399.902344 L 25.84375 282.273438 L 141.53125 348.375 L 141.53125 477.980469 L 37.199219 419.28125 Z M 272.578125 419.300781 L 168.246094 478 L 168.246094 348.394531 L 283.933594 282.289062 L 283.933594 399.917969 C 283.933594 407.945312 279.589844 415.367188 272.578125 419.320312 Z M 272.578125 419.300781 " fill-opacity="1" fill-rule="nonzero"/></g><g clip-path="url(#299728614b)"><path fill="#000000" d="M 572.738281 69.753906 L 465.949219 9.683594 C 451.140625 1.335938 432.757812 1.335938 417.949219 9.683594 L 311.179688 69.734375 C 295.785156 78.367188 286.226562 94.722656 286.226562 112.398438 L 286.226562 230.933594 C 286.226562 248.589844 295.785156 264.929688 311.160156 273.578125 L 417.949219 333.648438 C 425.351562 337.8125 433.664062 339.910156 441.957031 339.910156 C 450.25 339.910156 458.5625 337.828125 465.96875 333.648438 L 572.753906 273.578125 C 588.132812 264.929688 597.691406 248.589844 597.691406 230.933594 L 597.691406 112.398438 C 597.691406 94.722656 588.132812 78.367188 572.753906 69.753906 Z M 431.046875 32.945312 C 434.394531 31.058594 438.167969 30.117188 441.941406 30.117188 C 445.714844 30.117188 449.488281 31.058594 452.832031 32.945312 L 556.113281 91.058594 L 441.921875 156.304688 L 327.730469 91.058594 L 431.03125 32.945312 Z M 324.261719 250.351562 C 317.246094 246.398438 312.90625 238.976562 312.90625 230.949219 L 312.90625 113.324219 L 428.589844 179.425781 L 428.589844 309.03125 L 324.261719 250.332031 Z M 559.636719 250.351562 L 455.304688 309.050781 L 455.304688 179.441406 L 570.992188 113.339844 L 570.992188 230.96875 C 570.992188 238.996094 566.648438 246.417969 559.636719 250.367188 Z M 559.636719 250.351562 " fill-opacity="1" fill-rule="nonzero"/></g><g clip-path="url(#617a176b61)"><path fill="#3467c6" d="M 862.867188 238.644531 L 756.164062 178.625 C 741.371094 170.285156 723 170.285156 708.203125 178.625 L 601.519531 238.628906 C 586.136719 247.253906 576.585938 263.597656 576.585938 281.253906 L 576.585938 399.695312 C 576.585938 417.335938 586.136719 433.660156 601.5 442.304688 L 708.203125 502.324219 C 715.601562 506.484375 723.90625 508.582031 732.195312 508.582031 C 740.480469 508.582031 748.785156 506.503906 756.183594 502.324219 L 862.886719 442.304688 C 878.25 433.660156 887.800781 417.335938 887.800781 399.695312 L 887.800781 281.253906 C 887.800781 263.597656 878.25 247.253906 862.886719 238.644531 Z M 721.292969 201.867188 C 724.636719 199.984375 728.40625 199.042969 732.175781 199.042969 C 735.945312 199.042969 739.714844 199.984375 743.058594 201.867188 L 846.257812 259.933594 L 732.15625 325.128906 L 618.058594 259.933594 L 721.273438 201.867188 Z M 614.589844 419.097656 C 607.582031 415.148438 603.246094 407.734375 603.246094 399.710938 L 603.246094 282.179688 L 718.839844 348.226562 L 718.839844 477.730469 L 614.589844 419.078125 Z M 849.777344 419.097656 L 745.53125 477.746094 L 745.53125 348.246094 L 861.125 282.199219 L 861.125 399.730469 C 861.125 407.75 856.785156 415.167969 849.777344 419.113281 Z M 849.777344 419.097656 " fill-opacity="1" fill-rule="nonzero"/></g><g clip-path="url(#78525a7f99)"><path fill="#3467c6" d="M 862.867188 574.234375 L 756.164062 514.214844 C 741.371094 505.875 723 505.875 708.203125 514.214844 L 601.519531 574.21875 C 586.136719 582.84375 576.585938 599.1875 576.585938 616.847656 L 576.585938 735.285156 C 576.585938 752.925781 586.136719 769.25 601.5 777.894531 L 708.203125 837.914062 C 715.601562 842.074219 723.90625 844.175781 732.195312 844.175781 C 740.480469 844.175781 748.785156 842.09375 756.183594 837.914062 L 862.886719 777.894531 C 878.25 769.25 887.800781 752.925781 887.800781 735.285156 L 887.800781 616.847656 C 887.800781 599.1875 878.25 582.84375 862.886719 574.234375 Z M 721.292969 537.460938 C 724.636719 535.574219 728.40625 534.632812 732.175781 534.632812 C 735.945312 534.632812 739.714844 535.574219 743.058594 537.460938 L 846.257812 595.523438 L 732.15625 660.71875 L 618.058594 595.523438 L 721.273438 537.460938 Z M 614.589844 754.6875 C 607.582031 750.738281 603.246094 743.324219 603.246094 735.300781 L 603.246094 617.769531 L 718.839844 683.820312 L 718.839844 813.320312 L 614.589844 754.667969 Z M 849.777344 754.6875 L 745.53125 813.335938 L 745.53125 683.835938 L 861.125 617.789062 L 861.125 735.320312 C 861.125 743.339844 856.785156 750.757812 849.777344 754.703125 Z M 849.777344 754.6875 " fill-opacity="1" fill-rule="nonzero"/></g><g clip-path="url(#499ff49643)"><path fill="#000000" d="M 572.738281 743.242188 L 465.949219 683.171875 C 451.140625 674.824219 432.757812 674.824219 417.949219 683.171875 L 311.179688 743.226562 C 295.785156 751.855469 286.226562 768.214844 286.226562 785.886719 L 286.226562 904.421875 C 286.226562 922.078125 295.785156 938.417969 311.160156 947.066406 L 417.949219 1007.136719 C 425.351562 1011.300781 433.664062 1013.402344 441.957031 1013.402344 C 450.25 1013.402344 458.5625 1011.320312 465.96875 1007.136719 L 572.753906 947.066406 C 588.132812 938.417969 597.691406 922.078125 597.691406 904.421875 L 597.691406 785.886719 C 597.691406 768.214844 588.132812 751.855469 572.753906 743.242188 Z M 431.046875 706.4375 C 434.394531 704.550781 438.167969 703.605469 441.941406 703.605469 C 445.714844 703.605469 449.488281 704.550781 452.832031 706.4375 L 556.113281 764.546875 L 441.921875 829.796875 L 327.730469 764.546875 L 431.03125 706.4375 Z M 324.261719 923.839844 C 317.246094 919.890625 312.90625 912.46875 312.90625 904.441406 L 312.90625 786.8125 L 428.589844 852.914062 L 428.589844 982.523438 L 324.261719 923.824219 Z M 559.636719 923.839844 L 455.304688 982.539062 L 455.304688 852.933594 L 570.992188 786.832031 L 570.992188 904.460938 C 570.992188 912.484375 566.648438 919.90625 559.636719 923.859375 Z M 559.636719 923.839844 " fill-opacity="1" fill-rule="nonzero"/></g><g clip-path="url(#a95157a5f7)"><path fill="#3467c6" d="M 862.867188 910.15625 L 756.164062 850.136719 C 741.371094 841.796875 723 841.796875 708.203125 850.136719 L 601.519531 910.140625 C 586.136719 918.765625 576.585938 935.105469 576.585938 952.765625 L 576.585938 1071.207031 C 576.585938 1088.847656 586.136719 1105.171875 601.5 1113.816406 L 708.203125 1173.835938 C 715.601562 1177.996094 723.90625 1180.09375 732.195312 1180.09375 C 740.480469 1180.09375 748.785156 1178.015625 756.183594 1173.835938 L 862.886719 1113.816406 C 878.25 1105.171875 887.800781 1088.847656 887.800781 1071.207031 L 887.800781 952.765625 C 887.800781 935.105469 878.25 918.765625 862.886719 910.15625 Z M 721.292969 873.378906 C 724.636719 871.496094 728.40625 870.550781 732.175781 870.550781 C 735.945312 870.550781 739.714844 871.496094 743.058594 873.378906 L 846.257812 931.445312 L 732.15625 996.636719 L 618.058594 931.445312 L 721.273438 873.378906 Z M 614.589844 1090.605469 C 607.582031 1086.660156 603.246094 1079.242188 603.246094 1071.222656 L 603.246094 953.691406 L 718.839844 1019.738281 L 718.839844 1149.238281 L 614.589844 1090.589844 Z M 849.777344 1090.605469 L 745.53125 1149.257812 L 745.53125 1019.757812 L 861.125 953.707031 L 861.125 1071.242188 C 861.125 1079.261719 856.785156 1086.675781 849.777344 1090.625 Z M 849.777344 1090.605469 " fill-opacity="1" fill-rule="nonzero"/></g><g clip-path="url(#fdb35c7294)"><path fill="#3467c6" d="M 1174.15625 238.644531 L 1067.457031 178.625 C 1052.660156 170.285156 1034.289062 170.285156 1019.492188 178.625 L 912.808594 238.628906 C 897.425781 247.253906 887.875 263.597656 887.875 281.253906 L 887.875 399.695312 C 887.875 417.335938 897.425781 433.660156 912.792969 442.304688 L 1019.492188 502.324219 C 1026.890625 506.484375 1035.195312 508.582031 1043.484375 508.582031 C 1051.769531 508.582031 1060.074219 506.503906 1067.472656 502.324219 L 1174.175781 442.304688 C 1189.539062 433.660156 1199.089844 417.335938 1199.089844 399.695312 L 1199.089844 281.253906 C 1199.089844 263.597656 1189.539062 247.253906 1174.175781 238.644531 Z M 1032.582031 201.867188 C 1035.925781 199.984375 1039.695312 199.042969 1043.464844 199.042969 C 1047.234375 199.042969 1051.007812 199.984375 1054.347656 201.867188 L 1157.546875 259.933594 L 1043.449219 325.128906 L 929.347656 259.933594 L 1032.5625 201.867188 Z M 925.878906 419.097656 C 918.875 415.148438 914.535156 407.734375 914.535156 399.710938 L 914.535156 282.179688 L 1030.128906 348.226562 L 1030.128906 477.730469 L 925.878906 419.078125 Z M 1161.070312 419.097656 L 1056.820312 477.746094 L 1056.820312 348.246094 L 1172.414062 282.199219 L 1172.414062 399.730469 C 1172.414062 407.75 1168.074219 415.167969 1161.070312 419.113281 Z M 1161.070312 419.097656 " fill-opacity="1" fill-rule="nonzero"/></g><g clip-path="url(#aaf392b214)"><path fill="#3467c6" d="M 1174.15625 574.234375 L 1067.457031 514.214844 C 1052.660156 505.875 1034.289062 505.875 1019.492188 514.214844 L 912.808594 574.21875 C 897.425781 582.84375 887.875 599.1875 887.875 616.847656 L 887.875 735.285156 C 887.875 752.925781 897.425781 769.25 912.792969 777.894531 L 1019.492188 837.914062 C 1026.890625 842.074219 1035.195312 844.175781 1043.484375 844.175781 C 1051.769531 844.175781 1060.074219 842.09375 1067.472656 837.914062 L 1174.175781 777.894531 C 1189.539062 769.25 1199.089844 752.925781 1199.089844 735.285156 L 1199.089844 616.847656 C 1199.089844 599.1875 1189.539062 582.84375 1174.175781 574.234375 Z M 1032.582031 537.460938 C 1035.925781 535.574219 1039.695312 534.632812 1043.464844 534.632812 C 1047.234375 534.632812 1051.007812 535.574219 1054.347656 537.460938 L 1157.546875 595.523438 L 1043.449219 660.71875 L 929.347656 595.523438 L 1032.5625 537.460938 Z M 925.878906 754.6875 C 918.875 750.738281 914.535156 743.324219 914.535156 735.300781 L 914.535156 617.769531 L 1030.128906 683.820312 L 1030.128906 813.320312 L 925.878906 754.667969 Z M 1161.070312 754.6875 L 1056.820312 813.335938 L 1056.820312 683.835938 L 1172.414062 617.789062 L 1172.414062 735.320312 C 1172.414062 743.339844 1168.074219 750.757812 1161.070312 754.703125 Z M 1161.070312 754.6875 " fill-opacity="1" fill-rule="nonzero"/></g><g clip-path="url(#981ddd58da)"><path fill="#000000" d="M 863.097656 238.703125 L 756.308594 178.632812 C 741.5 170.285156 723.117188 170.285156 708.308594 178.632812 L 601.539062 238.683594 C 586.144531 247.316406 576.585938 263.671875 576.585938 281.347656 L 576.585938 399.882812 C 576.585938 417.539062 586.144531 433.878906 601.519531 442.527344 L 708.308594 502.597656 C 715.710938 506.761719 724.023438 508.863281 732.316406 508.863281 C 740.613281 508.863281 748.921875 506.78125 756.328125 502.597656 L 863.113281 442.527344 C 878.492188 433.878906 888.050781 417.539062 888.050781 399.882812 L 888.050781 281.347656 C 888.050781 263.671875 878.492188 247.316406 863.113281 238.703125 Z M 721.40625 201.894531 C 724.753906 200.007812 728.527344 199.066406 732.300781 199.066406 C 736.074219 199.066406 739.847656 200.007812 743.191406 201.894531 L 846.472656 260.007812 L 732.28125 325.253906 L 618.089844 260.007812 L 721.390625 201.894531 Z M 614.621094 419.300781 C 607.609375 415.351562 603.265625 407.929688 603.265625 399.902344 L 603.265625 282.273438 L 718.953125 348.375 L 718.953125 477.980469 L 614.621094 419.28125 Z M 849.996094 419.300781 L 745.667969 478 L 745.667969 348.394531 L 861.351562 282.289062 L 861.351562 399.917969 C 861.351562 407.945312 857.011719 415.367188 849.996094 419.320312 Z M 849.996094 419.300781 " fill-opacity="1" fill-rule="nonzero"/></g><g clip-path="url(#1f317cc10e)"><path fill="#000000" d="M 863.097656 574.292969 L 756.308594 514.222656 C 741.5 505.875 723.117188 505.875 708.308594 514.222656 L 601.539062 574.273438 C 586.144531 582.90625 576.585938 599.261719 576.585938 616.9375 L 576.585938 735.472656 C 576.585938 753.128906 586.144531 769.46875 601.519531 778.117188 L 708.308594 838.1875 C 715.710938 842.351562 724.023438 844.453125 732.316406 844.453125 C 740.613281 844.453125 748.921875 842.371094 756.328125 838.1875 L 863.113281 778.117188 C 878.492188 769.46875 888.050781 753.128906 888.050781 735.472656 L 888.050781 616.9375 C 888.050781 599.261719 878.492188 582.90625 863.113281 574.292969 Z M 721.40625 537.484375 C 724.753906 535.597656 728.527344 534.65625 732.300781 534.65625 C 736.074219 534.65625 739.847656 535.597656 743.191406 537.484375 L 846.472656 595.597656 L 732.28125 660.84375 L 618.089844 595.597656 L 721.390625 537.484375 Z M 614.621094 754.890625 C 607.609375 750.941406 603.265625 743.519531 603.265625 735.492188 L 603.265625 617.863281 L 718.953125 683.964844 L 718.953125 813.574219 L 614.621094 754.875 Z M 849.996094 754.890625 L 745.667969 813.589844 L 745.667969 683.984375 L 861.351562 617.878906 L 861.351562 735.507812 C 861.351562 743.535156 857.011719 750.957031 849.996094 754.910156 Z M 849.996094 754.890625 " fill-opacity="1" fill-rule="nonzero"/></g></g></g></svg>