<svg xmlns="http://www.w3.org/2000/svg" xmlns:xlink="http://www.w3.org/1999/xlink" width="2000" zoomAndPan="magnify" viewBox="0 0 1500 1499.999933" height="2000" preserveAspectRatio="xMidYMid meet" version="1.0"><defs><clipPath id="5ab6bac4aa"><path d="M 6 514 L 317 514 L 317 850.527344 L 6 850.527344 Z M 6 514 " clip-rule="nonzero"/></clipPath><clipPath id="056d409ea6"><path d="M 6 179 L 317 179 L 317 514.9375 L 6 514.9375 Z M 6 179 " clip-rule="nonzero"/></clipPath><clipPath id="e5a9ff7d91"><path d="M 293.058594 10 L 604 10 L 604 345.988281 L 293.058594 345.988281 Z M 293.058594 10 " clip-rule="nonzero"/></clipPath><clipPath id="dc5cde03f3"><path d="M 583.421875 179 L 894 179 L 894 514.9375 L 583.421875 514.9375 Z M 583.421875 179 " clip-rule="nonzero"/></clipPath><clipPath id="43d6aff577"><path d="M 583.421875 514 L 894 514 L 894 850.527344 L 583.421875 850.527344 Z M 583.421875 514 " clip-rule="nonzero"/></clipPath><clipPath id="c933df5723"><path d="M 293.058594 683 L 604 683 L 604 1019.476562 L 293.058594 1019.476562 Z M 293.058594 683 " clip-rule="nonzero"/></clipPath><clipPath id="5ebf5fd4d6"><path d="M 583.421875 850 L 894 850 L 894 1186.449219 L 583.421875 1186.449219 Z M 583.421875 850 " clip-rule="nonzero"/></clipPath><clipPath id="321a5c506a"><path d="M 894.710938 179 L 1206 179 L 1206 514.9375 L 894.710938 514.9375 Z M 894.710938 179 " clip-rule="nonzero"/></clipPath><clipPath id="3d6193b237"><path d="M 894.710938 514 L 1206 514 L 1206 850.527344 L 894.710938 850.527344 Z M 894.710938 514 " clip-rule="nonzero"/></clipPath><clipPath id="ba6cd674ab"><path d="M 583.421875 179 L 738.746094 179 L 738.746094 514.9375 L 583.421875 514.9375 Z M 583.421875 179 " clip-rule="nonzero"/></clipPath><clipPath id="8446100e52"><path d="M 583.421875 514 L 738.746094 514 L 738.746094 850.527344 L 583.421875 850.527344 Z M 583.421875 514 " clip-rule="nonzero"/></clipPath><clipPath id="ad9b133a48"><rect x="0" width="1210" y="0" height="1197"/></clipPath></defs><g transform="matrix(1, 0, 0, 1, 144, 153)"><g clip-path="url(#ad9b133a48)"><g clip-path="url(#5ab6bac4aa)"><path fill="#3467c6" d="M 291.449219 581.234375 L 184.746094 521.214844 C 169.949219 512.875 151.578125 512.875 136.785156 521.214844 L 30.097656 581.21875 C 14.714844 589.84375 5.167969 606.1875 5.167969 623.847656 L 5.167969 742.285156 C 5.167969 759.925781 14.714844 776.25 30.082031 784.894531 L 136.785156 844.914062 C 144.179688 849.074219 152.488281 851.175781 160.773438 851.175781 C 169.0625 851.175781 177.367188 849.09375 184.765625 844.914062 L 291.464844 784.894531 C 306.832031 776.25 316.378906 759.925781 316.378906 742.285156 L 316.378906 623.847656 C 316.378906 606.1875 306.832031 589.84375 291.464844 581.234375 Z M 149.871094 544.460938 C 153.214844 542.574219 156.984375 541.632812 160.753906 541.632812 C 164.527344 541.632812 168.296875 542.574219 171.640625 544.460938 L 274.839844 602.523438 L 160.738281 667.71875 L 46.636719 602.523438 L 149.855469 544.460938 Z M 43.171875 761.6875 C 36.164062 757.738281 31.824219 750.324219 31.824219 742.300781 L 31.824219 624.769531 L 147.417969 690.820312 L 147.417969 820.320312 L 43.171875 761.667969 Z M 278.359375 761.6875 L 174.113281 820.335938 L 174.113281 690.835938 L 289.707031 624.789062 L 289.707031 742.320312 C 289.707031 750.339844 285.367188 757.757812 278.359375 761.703125 Z M 278.359375 761.6875 " fill-opacity="1" fill-rule="nonzero"/></g><g clip-path="url(#056d409ea6)"><path fill="#3467c6" d="M 291.449219 245.644531 L 184.746094 185.625 C 169.949219 177.285156 151.578125 177.285156 136.785156 185.625 L 30.097656 245.628906 C 14.714844 254.253906 5.167969 270.597656 5.167969 288.253906 L 5.167969 406.695312 C 5.167969 424.335938 14.714844 440.660156 30.082031 449.304688 L 136.785156 509.324219 C 144.179688 513.484375 152.488281 515.582031 160.773438 515.582031 C 169.0625 515.582031 177.367188 513.503906 184.765625 509.324219 L 291.464844 449.304688 C 306.832031 440.660156 316.378906 424.335938 316.378906 406.695312 L 316.378906 288.253906 C 316.378906 270.597656 306.832031 254.253906 291.464844 245.644531 Z M 149.871094 208.867188 C 153.214844 206.984375 156.984375 206.042969 160.753906 206.042969 C 164.527344 206.042969 168.296875 206.984375 171.640625 208.867188 L 274.839844 266.933594 L 160.738281 332.128906 L 46.636719 266.933594 L 149.855469 208.867188 Z M 43.171875 426.097656 C 36.164062 422.148438 31.824219 414.734375 31.824219 406.710938 L 31.824219 289.179688 L 147.417969 355.226562 L 147.417969 484.730469 L 43.171875 426.078125 Z M 278.359375 426.097656 L 174.113281 484.746094 L 174.113281 355.246094 L 289.707031 289.199219 L 289.707031 406.730469 C 289.707031 414.75 285.367188 422.167969 278.359375 426.113281 Z M 278.359375 426.097656 " fill-opacity="1" fill-rule="nonzero"/></g><g clip-path="url(#e5a9ff7d91)"><path fill="#3467c6" d="M 578.507812 76.695312 L 471.804688 16.675781 C 457.011719 8.335938 438.640625 8.335938 423.84375 16.675781 L 317.160156 76.679688 C 301.777344 85.304688 292.226562 101.644531 292.226562 119.304688 L 292.226562 237.746094 C 292.226562 255.386719 301.777344 271.710938 317.140625 280.355469 L 423.84375 340.375 C 431.242188 344.535156 439.546875 346.632812 447.832031 346.632812 C 456.121094 346.632812 464.425781 344.554688 471.824219 340.375 L 578.527344 280.355469 C 593.890625 271.710938 603.441406 255.386719 603.441406 237.746094 L 603.441406 119.304688 C 603.441406 101.644531 593.890625 85.304688 578.527344 76.695312 Z M 436.933594 39.917969 C 440.277344 38.035156 444.046875 37.089844 447.816406 37.089844 C 451.585938 37.089844 455.355469 38.035156 458.699219 39.917969 L 561.898438 97.984375 L 447.796875 163.175781 L 333.699219 97.984375 L 436.914062 39.917969 Z M 330.230469 257.148438 C 323.222656 253.199219 318.882812 245.78125 318.882812 237.761719 L 318.882812 120.230469 L 434.476562 186.277344 L 434.476562 315.777344 L 330.230469 257.128906 Z M 565.417969 257.148438 L 461.171875 315.796875 L 461.171875 186.296875 L 576.765625 120.246094 L 576.765625 237.78125 C 576.765625 245.800781 572.425781 253.214844 565.417969 257.164062 Z M 565.417969 257.148438 " fill-opacity="1" fill-rule="nonzero"/></g><g clip-path="url(#dc5cde03f3)"><path fill="#3467c6" d="M 868.867188 245.644531 L 762.164062 185.625 C 747.371094 177.285156 729 177.285156 714.203125 185.625 L 607.519531 245.628906 C 592.136719 254.253906 582.585938 270.597656 582.585938 288.253906 L 582.585938 406.695312 C 582.585938 424.335938 592.136719 440.660156 607.5 449.304688 L 714.203125 509.324219 C 721.601562 513.484375 729.90625 515.582031 738.195312 515.582031 C 746.480469 515.582031 754.785156 513.503906 762.183594 509.324219 L 868.886719 449.304688 C 884.25 440.660156 893.800781 424.335938 893.800781 406.695312 L 893.800781 288.253906 C 893.800781 270.597656 884.25 254.253906 868.886719 245.644531 Z M 727.292969 208.867188 C 730.636719 206.984375 734.40625 206.042969 738.175781 206.042969 C 741.945312 206.042969 745.714844 206.984375 749.058594 208.867188 L 852.257812 266.933594 L 738.15625 332.128906 L 624.058594 266.933594 L 727.273438 208.867188 Z M 620.589844 426.097656 C 613.582031 422.148438 609.246094 414.734375 609.246094 406.710938 L 609.246094 289.179688 L 724.839844 355.226562 L 724.839844 484.730469 L 620.589844 426.078125 Z M 855.777344 426.097656 L 751.53125 484.746094 L 751.53125 355.246094 L 867.125 289.199219 L 867.125 406.730469 C 867.125 414.75 862.785156 422.167969 855.777344 426.113281 Z M 855.777344 426.097656 " fill-opacity="1" fill-rule="nonzero"/></g><g clip-path="url(#43d6aff577)"><path fill="#3467c6" d="M 868.867188 581.234375 L 762.164062 521.214844 C 747.371094 512.875 729 512.875 714.203125 521.214844 L 607.519531 581.21875 C 592.136719 589.84375 582.585938 606.1875 582.585938 623.847656 L 582.585938 742.285156 C 582.585938 759.925781 592.136719 776.25 607.5 784.894531 L 714.203125 844.914062 C 721.601562 849.074219 729.90625 851.175781 738.195312 851.175781 C 746.480469 851.175781 754.785156 849.09375 762.183594 844.914062 L 868.886719 784.894531 C 884.25 776.25 893.800781 759.925781 893.800781 742.285156 L 893.800781 623.847656 C 893.800781 606.1875 884.25 589.84375 868.886719 581.234375 Z M 727.292969 544.460938 C 730.636719 542.574219 734.40625 541.632812 738.175781 541.632812 C 741.945312 541.632812 745.714844 542.574219 749.058594 544.460938 L 852.257812 602.523438 L 738.15625 667.71875 L 624.058594 602.523438 L 727.273438 544.460938 Z M 620.589844 761.6875 C 613.582031 757.738281 609.246094 750.324219 609.246094 742.300781 L 609.246094 624.769531 L 724.839844 690.820312 L 724.839844 820.320312 L 620.589844 761.667969 Z M 855.777344 761.6875 L 751.53125 820.335938 L 751.53125 690.835938 L 867.125 624.789062 L 867.125 742.320312 C 867.125 750.339844 862.785156 757.757812 855.777344 761.703125 Z M 855.777344 761.6875 " fill-opacity="1" fill-rule="nonzero"/></g><g clip-path="url(#c933df5723)"><path fill="#3467c6" d="M 578.507812 750.1875 L 471.804688 690.167969 C 457.011719 681.824219 438.640625 681.824219 423.84375 690.167969 L 317.160156 750.167969 C 301.777344 758.792969 292.226562 775.136719 292.226562 792.796875 L 292.226562 911.234375 C 292.226562 928.875 301.777344 945.203125 317.140625 953.84375 L 423.84375 1013.863281 C 431.242188 1018.027344 439.546875 1020.125 447.832031 1020.125 C 456.121094 1020.125 464.425781 1018.042969 471.824219 1013.863281 L 578.527344 953.84375 C 593.890625 945.203125 603.441406 928.875 603.441406 911.234375 L 603.441406 792.796875 C 603.441406 775.136719 593.890625 758.792969 578.527344 750.1875 Z M 436.933594 713.410156 C 440.277344 711.523438 444.046875 710.582031 447.816406 710.582031 C 451.585938 710.582031 455.355469 711.523438 458.699219 713.410156 L 561.898438 771.472656 L 447.796875 836.667969 L 333.699219 771.472656 L 436.914062 713.410156 Z M 330.230469 930.636719 C 323.222656 926.6875 318.882812 919.273438 318.882812 911.253906 L 318.882812 793.71875 L 434.476562 859.769531 L 434.476562 989.269531 L 330.230469 930.617188 Z M 565.417969 930.636719 L 461.171875 989.289062 L 461.171875 859.785156 L 576.765625 793.738281 L 576.765625 911.269531 C 576.765625 919.289062 572.425781 926.707031 565.417969 930.65625 Z M 565.417969 930.636719 " fill-opacity="1" fill-rule="nonzero"/></g><g clip-path="url(#5ebf5fd4d6)"><path fill="#3467c6" d="M 868.867188 917.15625 L 762.164062 857.136719 C 747.371094 848.796875 729 848.796875 714.203125 857.136719 L 607.519531 917.140625 C 592.136719 925.765625 582.585938 942.105469 582.585938 959.765625 L 582.585938 1078.207031 C 582.585938 1095.847656 592.136719 1112.171875 607.5 1120.816406 L 714.203125 1180.835938 C 721.601562 1184.996094 729.90625 1187.09375 738.195312 1187.09375 C 746.480469 1187.09375 754.785156 1185.015625 762.183594 1180.835938 L 868.886719 1120.816406 C 884.25 1112.171875 893.800781 1095.847656 893.800781 1078.207031 L 893.800781 959.765625 C 893.800781 942.105469 884.25 925.765625 868.886719 917.15625 Z M 727.292969 880.378906 C 730.636719 878.496094 734.40625 877.550781 738.175781 877.550781 C 741.945312 877.550781 745.714844 878.496094 749.058594 880.378906 L 852.257812 938.445312 L 738.15625 1003.636719 L 624.058594 938.445312 L 727.273438 880.378906 Z M 620.589844 1097.605469 C 613.582031 1093.660156 609.246094 1086.242188 609.246094 1078.222656 L 609.246094 960.691406 L 724.839844 1026.738281 L 724.839844 1156.238281 L 620.589844 1097.589844 Z M 855.777344 1097.605469 L 751.53125 1156.257812 L 751.53125 1026.757812 L 867.125 960.707031 L 867.125 1078.242188 C 867.125 1086.261719 862.785156 1093.675781 855.777344 1097.625 Z M 855.777344 1097.605469 " fill-opacity="1" fill-rule="nonzero"/></g><g clip-path="url(#321a5c506a)"><path fill="#3467c6" d="M 1180.15625 245.644531 L 1073.457031 185.625 C 1058.660156 177.285156 1040.289062 177.285156 1025.492188 185.625 L 918.808594 245.628906 C 903.425781 254.253906 893.875 270.597656 893.875 288.253906 L 893.875 406.695312 C 893.875 424.335938 903.425781 440.660156 918.792969 449.304688 L 1025.492188 509.324219 C 1032.890625 513.484375 1041.195312 515.582031 1049.484375 515.582031 C 1057.769531 515.582031 1066.074219 513.503906 1073.472656 509.324219 L 1180.175781 449.304688 C 1195.539062 440.660156 1205.089844 424.335938 1205.089844 406.695312 L 1205.089844 288.253906 C 1205.089844 270.597656 1195.539062 254.253906 1180.175781 245.644531 Z M 1038.582031 208.867188 C 1041.925781 206.984375 1045.695312 206.042969 1049.464844 206.042969 C 1053.234375 206.042969 1057.007812 206.984375 1060.347656 208.867188 L 1163.546875 266.933594 L 1049.449219 332.128906 L 935.347656 266.933594 L 1038.5625 208.867188 Z M 931.878906 426.097656 C 924.875 422.148438 920.535156 414.734375 920.535156 406.710938 L 920.535156 289.179688 L 1036.128906 355.226562 L 1036.128906 484.730469 L 931.878906 426.078125 Z M 1167.070312 426.097656 L 1062.820312 484.746094 L 1062.820312 355.246094 L 1178.414062 289.199219 L 1178.414062 406.730469 C 1178.414062 414.75 1174.074219 422.167969 1167.070312 426.113281 Z M 1167.070312 426.097656 " fill-opacity="1" fill-rule="nonzero"/></g><g clip-path="url(#3d6193b237)"><path fill="#3467c6" d="M 1180.15625 581.234375 L 1073.457031 521.214844 C 1058.660156 512.875 1040.289062 512.875 1025.492188 521.214844 L 918.808594 581.21875 C 903.425781 589.84375 893.875 606.1875 893.875 623.847656 L 893.875 742.285156 C 893.875 759.925781 903.425781 776.25 918.792969 784.894531 L 1025.492188 844.914062 C 1032.890625 849.074219 1041.195312 851.175781 1049.484375 851.175781 C 1057.769531 851.175781 1066.074219 849.09375 1073.472656 844.914062 L 1180.175781 784.894531 C 1195.539062 776.25 1205.089844 759.925781 1205.089844 742.285156 L 1205.089844 623.847656 C 1205.089844 606.1875 1195.539062 589.84375 1180.175781 581.234375 Z M 1038.582031 544.460938 C 1041.925781 542.574219 1045.695312 541.632812 1049.464844 541.632812 C 1053.234375 541.632812 1057.007812 542.574219 1060.347656 544.460938 L 1163.546875 602.523438 L 1049.449219 667.71875 L 935.347656 602.523438 L 1038.5625 544.460938 Z M 931.878906 761.6875 C 924.875 757.738281 920.535156 750.324219 920.535156 742.300781 L 920.535156 624.769531 L 1036.128906 690.820312 L 1036.128906 820.320312 L 931.878906 761.667969 Z M 1167.070312 761.6875 L 1062.820312 820.335938 L 1062.820312 690.835938 L 1178.414062 624.789062 L 1178.414062 742.320312 C 1178.414062 750.339844 1174.074219 757.757812 1167.070312 761.703125 Z M 1167.070312 761.6875 " fill-opacity="1" fill-rule="nonzero"/></g><g clip-path="url(#ba6cd674ab)"><path fill="#3467c6" d="M 868.867188 245.644531 L 762.164062 185.625 C 747.371094 177.285156 729 177.285156 714.203125 185.625 L 607.519531 245.628906 C 592.136719 254.253906 582.585938 270.597656 582.585938 288.253906 L 582.585938 406.695312 C 582.585938 424.335938 592.136719 440.660156 607.5 449.304688 L 714.203125 509.324219 C 721.601562 513.484375 729.90625 515.582031 738.195312 515.582031 C 746.480469 515.582031 754.785156 513.503906 762.183594 509.324219 L 868.886719 449.304688 C 884.25 440.660156 893.800781 424.335938 893.800781 406.695312 L 893.800781 288.253906 C 893.800781 270.597656 884.25 254.253906 868.886719 245.644531 Z M 727.292969 208.867188 C 730.636719 206.984375 734.40625 206.042969 738.175781 206.042969 C 741.945312 206.042969 745.714844 206.984375 749.058594 208.867188 L 852.257812 266.933594 L 738.15625 332.128906 L 624.058594 266.933594 L 727.273438 208.867188 Z M 620.589844 426.097656 C 613.582031 422.148438 609.246094 414.734375 609.246094 406.710938 L 609.246094 289.179688 L 724.839844 355.226562 L 724.839844 484.730469 L 620.589844 426.078125 Z M 855.777344 426.097656 L 751.53125 484.746094 L 751.53125 355.246094 L 867.125 289.199219 L 867.125 406.730469 C 867.125 414.75 862.785156 422.167969 855.777344 426.113281 Z M 855.777344 426.097656 " fill-opacity="1" fill-rule="nonzero"/></g><g clip-path="url(#8446100e52)"><path fill="#3467c6" d="M 868.867188 581.234375 L 762.164062 521.214844 C 747.371094 512.875 729 512.875 714.203125 521.214844 L 607.519531 581.21875 C 592.136719 589.84375 582.585938 606.1875 582.585938 623.847656 L 582.585938 742.285156 C 582.585938 759.925781 592.136719 776.25 607.5 784.894531 L 714.203125 844.914062 C 721.601562 849.074219 729.90625 851.175781 738.195312 851.175781 C 746.480469 851.175781 754.785156 849.09375 762.183594 844.914062 L 868.886719 784.894531 C 884.25 776.25 893.800781 759.925781 893.800781 742.285156 L 893.800781 623.847656 C 893.800781 606.1875 884.25 589.84375 868.886719 581.234375 Z M 727.292969 544.460938 C 730.636719 542.574219 734.40625 541.632812 738.175781 541.632812 C 741.945312 541.632812 745.714844 542.574219 749.058594 544.460938 L 852.257812 602.523438 L 738.15625 667.71875 L 624.058594 602.523438 L 727.273438 544.460938 Z M 620.589844 761.6875 C 613.582031 757.738281 609.246094 750.324219 609.246094 742.300781 L 609.246094 624.769531 L 724.839844 690.820312 L 724.839844 820.320312 L 620.589844 761.667969 Z M 855.777344 761.6875 L 751.53125 820.335938 L 751.53125 690.835938 L 867.125 624.789062 L 867.125 742.320312 C 867.125 750.339844 862.785156 757.757812 855.777344 761.703125 Z M 855.777344 761.6875 " fill-opacity="1" fill-rule="nonzero"/></g></g></g></svg>