<svg xmlns="http://www.w3.org/2000/svg" xmlns:xlink="http://www.w3.org/1999/xlink" width="2000" zoomAndPan="magnify" viewBox="0 0 1500 1499.999933" height="2000" preserveAspectRatio="xMidYMid meet" version="1.0"><defs><clipPath id="a8e71154cf"><path d="M 6 514 L 317 514 L 317 850.527344 L 6 850.527344 Z M 6 514 " clip-rule="nonzero"/></clipPath><clipPath id="2de45b3397"><path d="M 6 179 L 317 179 L 317 514.9375 L 6 514.9375 Z M 6 179 " clip-rule="nonzero"/></clipPath><clipPath id="693966a059"><path d="M 293.058594 10 L 604 10 L 604 345.988281 L 293.058594 345.988281 Z M 293.058594 10 " clip-rule="nonzero"/></clipPath><clipPath id="0a31a25ee7"><path d="M 583.421875 180 L 894.960938 180 L 894.960938 516.089844 L 583.421875 516.089844 Z M 583.421875 180 " clip-rule="nonzero"/></clipPath><clipPath id="7a9aa1ecd4"><path d="M 583.421875 516 L 894.960938 516 L 894.960938 851.679688 L 583.421875 851.679688 Z M 583.421875 516 " clip-rule="nonzero"/></clipPath><clipPath id="989ec819f7"><path d="M 293.058594 683 L 604 683 L 604 1019.476562 L 293.058594 1019.476562 Z M 293.058594 683 " clip-rule="nonzero"/></clipPath><clipPath id="018821ad87"><path d="M 583.421875 850 L 894.960938 850 L 894.960938 1186.449219 L 583.421875 1186.449219 Z M 583.421875 850 " clip-rule="nonzero"/></clipPath><clipPath id="be5b770e36"><path d="M 894.710938 180 L 1206 180 L 1206 516.089844 L 894.710938 516.089844 Z M 894.710938 180 " clip-rule="nonzero"/></clipPath><clipPath id="af1e9a236e"><path d="M 894.710938 516 L 1206 516 L 1206 851.679688 L 894.710938 851.679688 Z M 894.710938 516 " clip-rule="nonzero"/></clipPath><clipPath id="70926c080c"><path d="M 583.421875 180 L 738.746094 180 L 738.746094 516.089844 L 583.421875 516.089844 Z M 583.421875 180 " clip-rule="nonzero"/></clipPath><clipPath id="a2275ebe0c"><path d="M 583.421875 516 L 738.746094 516 L 738.746094 851.679688 L 583.421875 851.679688 Z M 583.421875 516 " clip-rule="nonzero"/></clipPath><clipPath id="2567ac4892"><rect x="0" width="1207" y="0" height="1187"/></clipPath></defs><g transform="matrix(1, 0, 0, 1, 144, 153)"><g clip-path="url(#2567ac4892)"><g clip-path="url(#a8e71154cf)"><path fill="#3467c6" d="M 291.449219 581.234375 L 184.746094 521.214844 C 169.949219 512.875 151.578125 512.875 136.785156 521.214844 L 30.097656 581.21875 C 14.714844 589.84375 5.167969 606.1875 5.167969 623.847656 L 5.167969 742.285156 C 5.167969 759.925781 14.714844 776.25 30.082031 784.894531 L 136.785156 844.914062 C 144.179688 849.074219 152.488281 851.175781 160.773438 851.175781 C 169.0625 851.175781 177.367188 849.09375 184.765625 844.914062 L 291.464844 784.894531 C 306.832031 776.25 316.378906 759.925781 316.378906 742.285156 L 316.378906 623.847656 C 316.378906 606.1875 306.832031 589.84375 291.464844 581.234375 Z M 149.871094 544.460938 C 153.214844 542.574219 156.984375 541.632812 160.753906 541.632812 C 164.527344 541.632812 168.296875 542.574219 171.640625 544.460938 L 274.839844 602.523438 L 160.738281 667.71875 L 46.636719 602.523438 L 149.855469 544.460938 Z M 43.171875 761.6875 C 36.164062 757.738281 31.824219 750.324219 31.824219 742.300781 L 31.824219 624.769531 L 147.417969 690.820312 L 147.417969 820.320312 L 43.171875 761.667969 Z M 278.359375 761.6875 L 174.113281 820.335938 L 174.113281 690.835938 L 289.707031 624.789062 L 289.707031 742.320312 C 289.707031 750.339844 285.367188 757.757812 278.359375 761.703125 Z M 278.359375 761.6875 " fill-opacity="1" fill-rule="nonzero"/></g><g clip-path="url(#2de45b3397)"><path fill="#3467c6" d="M 291.449219 245.644531 L 184.746094 185.625 C 169.949219 177.285156 151.578125 177.285156 136.785156 185.625 L 30.097656 245.628906 C 14.714844 254.253906 5.167969 270.597656 5.167969 288.253906 L 5.167969 406.695312 C 5.167969 424.335938 14.714844 440.660156 30.082031 449.304688 L 136.785156 509.324219 C 144.179688 513.484375 152.488281 515.582031 160.773438 515.582031 C 169.0625 515.582031 177.367188 513.503906 184.765625 509.324219 L 291.464844 449.304688 C 306.832031 440.660156 316.378906 424.335938 316.378906 406.695312 L 316.378906 288.253906 C 316.378906 270.597656 306.832031 254.253906 291.464844 245.644531 Z M 149.871094 208.867188 C 153.214844 206.984375 156.984375 206.042969 160.753906 206.042969 C 164.527344 206.042969 168.296875 206.984375 171.640625 208.867188 L 274.839844 266.933594 L 160.738281 332.128906 L 46.636719 266.933594 L 149.855469 208.867188 Z M 43.171875 426.097656 C 36.164062 422.148438 31.824219 414.734375 31.824219 406.710938 L 31.824219 289.179688 L 147.417969 355.226562 L 147.417969 484.730469 L 43.171875 426.078125 Z M 278.359375 426.097656 L 174.113281 484.746094 L 174.113281 355.246094 L 289.707031 289.199219 L 289.707031 406.730469 C 289.707031 414.75 285.367188 422.167969 278.359375 426.113281 Z M 278.359375 426.097656 " fill-opacity="1" fill-rule="nonzero"/></g><g clip-path="url(#693966a059)"><path fill="#3467c6" d="M 578.507812 76.695312 L 471.804688 16.675781 C 457.011719 8.335938 438.640625 8.335938 423.84375 16.675781 L 317.160156 76.679688 C 301.777344 85.304688 292.226562 101.644531 292.226562 119.304688 L 292.226562 237.746094 C 292.226562 255.386719 301.777344 271.710938 317.140625 280.355469 L 423.84375 340.375 C 431.242188 344.535156 439.546875 346.632812 447.832031 346.632812 C 456.121094 346.632812 464.425781 344.554688 471.824219 340.375 L 578.527344 280.355469 C 593.890625 271.710938 603.441406 255.386719 603.441406 237.746094 L 603.441406 119.304688 C 603.441406 101.644531 593.890625 85.304688 578.527344 76.695312 Z M 436.933594 39.917969 C 440.277344 38.035156 444.046875 37.089844 447.816406 37.089844 C 451.585938 37.089844 455.355469 38.035156 458.699219 39.917969 L 561.898438 97.984375 L 447.796875 163.175781 L 333.699219 97.984375 L 436.914062 39.917969 Z M 330.230469 257.148438 C 323.222656 253.199219 318.882812 245.78125 318.882812 237.761719 L 318.882812 120.230469 L 434.476562 186.277344 L 434.476562 315.777344 L 330.230469 257.128906 Z M 565.417969 257.148438 L 461.171875 315.796875 L 461.171875 186.296875 L 576.765625 120.246094 L 576.765625 237.78125 C 576.765625 245.800781 572.425781 253.214844 565.417969 257.164062 Z M 565.417969 257.148438 " fill-opacity="1" fill-rule="nonzero"/></g><g clip-path="url(#0a31a25ee7)"><path fill="#000000" d="M 869.097656 246.855469 L 762.308594 186.789062 C 747.5 178.441406 729.117188 178.441406 714.308594 186.789062 L 607.539062 246.839844 C 592.144531 255.472656 582.585938 271.828125 582.585938 289.5 L 582.585938 408.039062 C 582.585938 425.695312 592.144531 442.03125 607.519531 450.683594 L 714.308594 510.75 C 721.710938 514.917969 730.023438 517.015625 738.316406 517.015625 C 746.613281 517.015625 754.921875 514.933594 762.328125 510.75 L 869.113281 450.683594 C 884.492188 442.03125 894.050781 425.695312 894.050781 408.039062 L 894.050781 289.5 C 894.050781 271.828125 884.492188 255.472656 869.113281 246.855469 Z M 727.40625 210.050781 C 730.753906 208.164062 734.527344 207.21875 738.300781 207.21875 C 742.074219 207.21875 745.847656 208.164062 749.191406 210.050781 L 852.472656 268.160156 L 738.28125 333.410156 L 624.089844 268.160156 L 727.390625 210.050781 Z M 620.621094 427.457031 C 613.609375 423.503906 609.265625 416.082031 609.265625 408.054688 L 609.265625 290.425781 L 724.953125 356.53125 L 724.953125 486.136719 L 620.621094 427.4375 Z M 855.996094 427.457031 L 751.667969 486.152344 L 751.667969 356.546875 L 867.351562 290.445312 L 867.351562 408.074219 C 867.351562 416.101562 863.011719 423.523438 855.996094 427.472656 Z M 855.996094 427.457031 " fill-opacity="1" fill-rule="nonzero"/></g><g clip-path="url(#7a9aa1ecd4)"><path fill="#000000" d="M 869.097656 582.445312 L 762.308594 522.378906 C 747.5 514.03125 729.117188 514.03125 714.308594 522.378906 L 607.539062 582.429688 C 592.144531 591.0625 582.585938 607.417969 582.585938 625.089844 L 582.585938 743.628906 C 582.585938 761.285156 592.144531 777.621094 607.519531 786.273438 L 714.308594 846.34375 C 721.710938 850.507812 730.023438 852.605469 738.316406 852.605469 C 746.613281 852.605469 754.921875 850.523438 762.328125 846.34375 L 869.113281 786.273438 C 884.492188 777.621094 894.050781 761.285156 894.050781 743.628906 L 894.050781 625.089844 C 894.050781 607.417969 884.492188 591.0625 869.113281 582.445312 Z M 727.40625 545.640625 C 730.753906 543.753906 734.527344 542.808594 738.300781 542.808594 C 742.074219 542.808594 745.847656 543.753906 749.191406 545.640625 L 852.472656 603.75 L 738.28125 669 L 624.089844 603.75 L 727.390625 545.640625 Z M 620.621094 763.046875 C 613.609375 759.09375 609.265625 751.671875 609.265625 743.644531 L 609.265625 626.015625 L 724.953125 692.121094 L 724.953125 821.726562 L 620.621094 763.027344 Z M 855.996094 763.046875 L 751.667969 821.746094 L 751.667969 692.136719 L 867.351562 626.035156 L 867.351562 743.664062 C 867.351562 751.691406 863.011719 759.113281 855.996094 763.0625 Z M 855.996094 763.046875 " fill-opacity="1" fill-rule="nonzero"/></g><g clip-path="url(#989ec819f7)"><path fill="#3467c6" d="M 578.507812 750.1875 L 471.804688 690.167969 C 457.011719 681.824219 438.640625 681.824219 423.84375 690.167969 L 317.160156 750.167969 C 301.777344 758.792969 292.226562 775.136719 292.226562 792.796875 L 292.226562 911.234375 C 292.226562 928.875 301.777344 945.203125 317.140625 953.84375 L 423.84375 1013.863281 C 431.242188 1018.027344 439.546875 1020.125 447.832031 1020.125 C 456.121094 1020.125 464.425781 1018.042969 471.824219 1013.863281 L 578.527344 953.84375 C 593.890625 945.203125 603.441406 928.875 603.441406 911.234375 L 603.441406 792.796875 C 603.441406 775.136719 593.890625 758.792969 578.527344 750.1875 Z M 436.933594 713.410156 C 440.277344 711.523438 444.046875 710.582031 447.816406 710.582031 C 451.585938 710.582031 455.355469 711.523438 458.699219 713.410156 L 561.898438 771.472656 L 447.796875 836.667969 L 333.699219 771.472656 L 436.914062 713.410156 Z M 330.230469 930.636719 C 323.222656 926.6875 318.882812 919.273438 318.882812 911.253906 L 318.882812 793.71875 L 434.476562 859.769531 L 434.476562 989.269531 L 330.230469 930.617188 Z M 565.417969 930.636719 L 461.171875 989.289062 L 461.171875 859.785156 L 576.765625 793.738281 L 576.765625 911.269531 C 576.765625 919.289062 572.425781 926.707031 565.417969 930.65625 Z M 565.417969 930.636719 " fill-opacity="1" fill-rule="nonzero"/></g><g clip-path="url(#018821ad87)"><path fill="#000000" d="M 869.097656 917.214844 L 762.308594 857.144531 C 747.5 848.796875 729.117188 848.796875 714.308594 857.144531 L 607.539062 917.195312 C 592.144531 925.828125 582.585938 942.183594 582.585938 959.859375 L 582.585938 1078.394531 C 582.585938 1096.050781 592.144531 1112.390625 607.519531 1121.039062 L 714.308594 1181.109375 C 721.710938 1185.273438 730.023438 1187.371094 738.316406 1187.371094 C 746.613281 1187.371094 754.921875 1185.289062 762.328125 1181.109375 L 869.113281 1121.039062 C 884.492188 1112.390625 894.050781 1096.050781 894.050781 1078.394531 L 894.050781 959.859375 C 894.050781 942.183594 884.492188 925.828125 869.113281 917.214844 Z M 727.40625 880.40625 C 730.753906 878.519531 734.527344 877.578125 738.300781 877.578125 C 742.074219 877.578125 745.847656 878.519531 749.191406 880.40625 L 852.472656 938.519531 L 738.28125 1003.765625 L 624.089844 938.519531 L 727.390625 880.40625 Z M 620.621094 1097.8125 C 613.609375 1093.859375 609.265625 1086.4375 609.265625 1078.410156 L 609.265625 960.785156 L 724.953125 1026.886719 L 724.953125 1156.492188 L 620.621094 1097.792969 Z M 855.996094 1097.8125 L 751.667969 1156.511719 L 751.667969 1026.902344 L 867.351562 960.800781 L 867.351562 1078.429688 C 867.351562 1086.457031 863.011719 1093.878906 855.996094 1097.828125 Z M 855.996094 1097.8125 " fill-opacity="1" fill-rule="nonzero"/></g><g clip-path="url(#be5b770e36)"><path fill="#000000" d="M 1180.386719 246.855469 L 1073.597656 186.789062 C 1058.792969 178.441406 1040.40625 178.441406 1025.597656 186.789062 L 918.828125 246.839844 C 903.433594 255.472656 893.875 271.828125 893.875 289.5 L 893.875 408.039062 C 893.875 425.695312 903.433594 442.03125 918.8125 450.683594 L 1025.597656 510.75 C 1033.003906 514.917969 1041.3125 517.015625 1049.609375 517.015625 C 1057.902344 517.015625 1066.214844 514.933594 1073.617188 510.75 L 1180.40625 450.683594 C 1195.78125 442.03125 1205.339844 425.695312 1205.339844 408.039062 L 1205.339844 289.5 C 1205.339844 271.828125 1195.78125 255.472656 1180.40625 246.855469 Z M 1038.699219 210.050781 C 1042.042969 208.164062 1045.816406 207.21875 1049.589844 207.21875 C 1053.363281 207.21875 1057.136719 208.164062 1060.480469 210.050781 L 1163.761719 268.160156 L 1049.570312 333.410156 L 935.378906 268.160156 L 1038.679688 210.050781 Z M 931.910156 427.457031 C 924.898438 423.503906 920.554688 416.082031 920.554688 408.054688 L 920.554688 290.425781 L 1036.242188 356.53125 L 1036.242188 486.136719 L 931.910156 427.4375 Z M 1167.289062 427.457031 L 1062.957031 486.152344 L 1062.957031 356.546875 L 1178.640625 290.445312 L 1178.640625 408.074219 C 1178.640625 416.101562 1174.300781 423.523438 1167.289062 427.472656 Z M 1167.289062 427.457031 " fill-opacity="1" fill-rule="nonzero"/></g><g clip-path="url(#af1e9a236e)"><path fill="#000000" d="M 1180.386719 582.445312 L 1073.597656 522.378906 C 1058.792969 514.03125 1040.40625 514.03125 1025.597656 522.378906 L 918.828125 582.429688 C 903.433594 591.0625 893.875 607.417969 893.875 625.089844 L 893.875 743.628906 C 893.875 761.285156 903.433594 777.621094 918.8125 786.273438 L 1025.597656 846.34375 C 1033.003906 850.507812 1041.3125 852.605469 1049.609375 852.605469 C 1057.902344 852.605469 1066.214844 850.523438 1073.617188 846.34375 L 1180.40625 786.273438 C 1195.78125 777.621094 1205.339844 761.285156 1205.339844 743.628906 L 1205.339844 625.089844 C 1205.339844 607.417969 1195.78125 591.0625 1180.40625 582.445312 Z M 1038.699219 545.640625 C 1042.042969 543.753906 1045.816406 542.808594 1049.589844 542.808594 C 1053.363281 542.808594 1057.136719 543.753906 1060.480469 545.640625 L 1163.761719 603.75 L 1049.570312 669 L 935.378906 603.75 L 1038.679688 545.640625 Z M 931.910156 763.046875 C 924.898438 759.09375 920.554688 751.671875 920.554688 743.644531 L 920.554688 626.015625 L 1036.242188 692.121094 L 1036.242188 821.726562 L 931.910156 763.027344 Z M 1167.289062 763.046875 L 1062.957031 821.746094 L 1062.957031 692.136719 L 1178.640625 626.035156 L 1178.640625 743.664062 C 1178.640625 751.691406 1174.300781 759.113281 1167.289062 763.0625 Z M 1167.289062 763.046875 " fill-opacity="1" fill-rule="nonzero"/></g><g clip-path="url(#70926c080c)"><path fill="#3467c6" d="M 868.867188 246.800781 L 762.164062 186.78125 C 747.371094 178.441406 729 178.441406 714.203125 186.78125 L 607.519531 246.78125 C 592.136719 255.40625 582.585938 271.75 582.585938 289.410156 L 582.585938 407.847656 C 582.585938 425.488281 592.136719 441.816406 607.5 450.457031 L 714.203125 510.476562 C 721.601562 514.640625 729.90625 516.738281 738.195312 516.738281 C 746.480469 516.738281 754.785156 514.65625 762.183594 510.476562 L 868.886719 450.457031 C 884.25 441.816406 893.800781 425.488281 893.800781 407.847656 L 893.800781 289.410156 C 893.800781 271.75 884.25 255.40625 868.886719 246.800781 Z M 727.292969 210.023438 C 730.636719 208.136719 734.40625 207.195312 738.175781 207.195312 C 741.945312 207.195312 745.714844 208.136719 749.058594 210.023438 L 852.257812 268.085938 L 738.15625 333.28125 L 624.058594 268.085938 L 727.273438 210.023438 Z M 620.589844 427.25 C 613.582031 423.304688 609.246094 415.886719 609.246094 407.867188 L 609.246094 290.335938 L 724.839844 356.382812 L 724.839844 485.882812 L 620.589844 427.234375 Z M 855.777344 427.25 L 751.53125 485.902344 L 751.53125 356.402344 L 867.125 290.351562 L 867.125 407.882812 C 867.125 415.90625 862.785156 423.320312 855.777344 427.269531 Z M 855.777344 427.25 " fill-opacity="1" fill-rule="nonzero"/></g><g clip-path="url(#a2275ebe0c)"><path fill="#3467c6" d="M 868.867188 582.390625 L 762.164062 522.371094 C 747.371094 514.03125 729 514.03125 714.203125 522.371094 L 607.519531 582.371094 C 592.136719 590.996094 582.585938 607.339844 582.585938 625 L 582.585938 743.441406 C 582.585938 761.082031 592.136719 777.40625 607.5 786.050781 L 714.203125 846.070312 C 721.601562 850.230469 729.90625 852.328125 738.195312 852.328125 C 746.480469 852.328125 754.785156 850.25 762.183594 846.070312 L 868.886719 786.050781 C 884.25 777.40625 893.800781 761.082031 893.800781 743.441406 L 893.800781 625 C 893.800781 607.339844 884.25 590.996094 868.886719 582.390625 Z M 727.292969 545.613281 C 730.636719 543.730469 734.40625 542.785156 738.175781 542.785156 C 741.945312 542.785156 745.714844 543.730469 749.058594 545.613281 L 852.257812 603.675781 L 738.15625 668.871094 L 624.058594 603.675781 L 727.273438 545.613281 Z M 620.589844 762.839844 C 613.582031 758.894531 609.246094 751.476562 609.246094 743.457031 L 609.246094 625.925781 L 724.839844 691.972656 L 724.839844 821.472656 L 620.589844 762.824219 Z M 855.777344 762.839844 L 751.53125 821.492188 L 751.53125 691.992188 L 867.125 625.941406 L 867.125 743.476562 C 867.125 751.496094 862.785156 758.910156 855.777344 762.859375 Z M 855.777344 762.839844 " fill-opacity="1" fill-rule="nonzero"/></g></g></g></svg>